<svg width="320" height="78" viewBox="0 0 320 78" fill="none" xmlns="http://www.w3.org/2000/svg">
<path d="M101.682 30.4091C101.53 28.7424 100.856 27.447 99.6591 26.5227C98.4773 25.5833 96.7879 25.1136 94.5909 25.1136C93.1364 25.1136 91.9242 25.303 90.9545 25.6818C89.9848 26.0606 89.2576 26.5833 88.7727 27.25C88.2879 27.9015 88.0379 28.6515 88.0227 29.5C87.9924 30.197 88.1288 30.8106 88.4318 31.3409C88.75 31.8712 89.2045 32.3409 89.7955 32.75C90.4015 33.1439 91.1288 33.4924 91.9773 33.7955C92.8258 34.0985 93.7803 34.3636 94.8409 34.5909L98.8409 35.5C101.144 36 103.174 36.6667 104.932 37.5C106.705 38.3333 108.189 39.3258 109.386 40.4773C110.598 41.6288 111.515 42.9545 112.136 44.4545C112.758 45.9545 113.076 47.6364 113.091 49.5C113.076 52.4394 112.333 54.9621 110.864 57.0682C109.394 59.1742 107.28 60.7879 104.523 61.9091C101.78 63.0303 98.4697 63.5909 94.5909 63.5909C90.697 63.5909 87.303 63.0076 84.4091 61.8409C81.5152 60.6742 79.2652 58.9015 77.6591 56.5227C76.053 54.1439 75.2273 51.1364 75.1818 47.5H85.9545C86.0455 49 86.447 50.25 87.1591 51.25C87.8712 52.25 88.8485 53.0076 90.0909 53.5227C91.3485 54.0379 92.803 54.2955 94.4545 54.2955C95.9697 54.2955 97.2576 54.0909 98.3182 53.6818C99.3939 53.2727 100.22 52.7045 100.795 51.9773C101.371 51.25 101.667 50.4167 101.682 49.4773C101.667 48.5985 101.394 47.8485 100.864 47.2273C100.333 46.5909 99.5152 46.0455 98.4091 45.5909C97.3182 45.1212 95.9242 44.6894 94.2273 44.2955L89.3636 43.1591C85.3333 42.2348 82.1591 40.7424 79.8409 38.6818C77.5227 36.6061 76.3712 33.803 76.3864 30.2727C76.3712 27.3939 77.1439 24.8712 78.7045 22.7045C80.2652 20.5379 82.4242 18.8485 85.1818 17.6364C87.9394 16.4242 91.0833 15.8182 94.6136 15.8182C98.2197 15.8182 101.348 16.4318 104 17.6591C106.667 18.8712 108.735 20.5758 110.205 22.7727C111.674 24.9697 112.424 27.5151 112.455 30.4091H101.682ZM141.468 63.6591C137.802 63.6591 134.65 62.9091 132.014 61.4091C129.392 59.8939 127.37 57.7879 125.945 55.0909C124.536 52.3788 123.832 49.2348 123.832 45.6591C123.832 42.0682 124.536 38.9242 125.945 36.2273C127.37 33.5152 129.392 31.4091 132.014 29.9091C134.65 28.3939 137.802 27.6364 141.468 27.6364C145.135 27.6364 148.279 28.3939 150.9 29.9091C153.536 31.4091 155.559 33.5152 156.968 36.2273C158.392 38.9242 159.105 42.0682 159.105 45.6591C159.105 49.2348 158.392 52.3788 156.968 55.0909C155.559 57.7879 153.536 59.8939 150.9 61.4091C148.279 62.9091 145.135 63.6591 141.468 63.6591ZM141.536 55.2727C142.87 55.2727 143.998 54.8636 144.923 54.0455C145.847 53.2273 146.552 52.0909 147.036 50.6364C147.536 49.1818 147.786 47.5 147.786 45.5909C147.786 43.6515 147.536 41.9545 147.036 40.5C146.552 39.0455 145.847 37.9091 144.923 37.0909C143.998 36.2727 142.87 35.8636 141.536 35.8636C140.158 35.8636 138.991 36.2727 138.036 37.0909C137.097 37.9091 136.377 39.0455 135.877 40.5C135.392 41.9545 135.15 43.6515 135.15 45.5909C135.15 47.5 135.392 49.1818 135.877 50.6364C136.377 52.0909 137.097 53.2273 138.036 54.0455C138.991 54.8636 140.158 55.2727 141.536 55.2727ZM182.311 16.4545V63H171.198V16.4545H182.311ZM229.649 28.0909L217.672 63H204.944L192.99 28.0909H204.694L211.126 52.1364H211.49L217.944 28.0909H229.649ZM255.503 63.6591C251.852 63.6591 248.7 62.9394 246.049 61.5C243.413 60.0455 241.382 57.9773 239.958 55.2955C238.549 52.5985 237.844 49.3939 237.844 45.6818C237.844 42.0758 238.556 38.9242 239.981 36.2273C241.405 33.5152 243.413 31.4091 246.003 29.9091C248.594 28.3939 251.647 27.6364 255.163 27.6364C257.647 27.6364 259.92 28.0227 261.981 28.7955C264.041 29.5682 265.822 30.7121 267.322 32.2273C268.822 33.7424 269.988 35.6136 270.822 37.8409C271.655 40.053 272.072 42.5909 272.072 45.4545V48.2273H241.731V41.7727H261.731C261.716 40.5909 261.435 39.5379 260.89 38.6136C260.344 37.6894 259.594 36.9697 258.64 36.4545C257.7 35.9242 256.617 35.6591 255.39 35.6591C254.147 35.6591 253.034 35.9394 252.049 36.5C251.064 37.0455 250.284 37.7955 249.708 38.75C249.132 39.6894 248.829 40.7576 248.799 41.9545V48.5227C248.799 49.947 249.079 51.197 249.64 52.2727C250.2 53.3333 250.996 54.1591 252.026 54.75C253.056 55.3409 254.284 55.6364 255.708 55.6364C256.693 55.6364 257.587 55.5 258.39 55.2273C259.193 54.9545 259.882 54.553 260.458 54.0227C261.034 53.4924 261.466 52.8409 261.753 52.0682L271.958 52.3636C271.534 54.6515 270.602 56.6439 269.163 58.3409C267.738 60.0227 265.867 61.3333 263.549 62.2727C261.231 63.197 258.549 63.6591 255.503 63.6591ZM300.466 63.6591C296.814 63.6591 293.663 62.9394 291.011 61.5C288.375 60.0455 286.345 57.9773 284.92 55.2955C283.511 52.5985 282.807 49.3939 282.807 45.6818C282.807 42.0758 283.519 38.9242 284.943 36.2273C286.367 33.5152 288.375 31.4091 290.966 29.9091C293.557 28.3939 296.61 27.6364 300.125 27.6364C302.61 27.6364 304.883 28.0227 306.943 28.7955C309.004 29.5682 310.784 30.7121 312.284 32.2273C313.784 33.7424 314.951 35.6136 315.784 37.8409C316.617 40.053 317.034 42.5909 317.034 45.4545V48.2273H286.693V41.7727H306.693C306.678 40.5909 306.398 39.5379 305.852 38.6136C305.307 37.6894 304.557 36.9697 303.602 36.4545C302.663 35.9242 301.58 35.6591 300.352 35.6591C299.11 35.6591 297.996 35.9394 297.011 36.5C296.027 37.0455 295.246 37.7955 294.67 38.75C294.095 39.6894 293.792 40.7576 293.761 41.9545V48.5227C293.761 49.947 294.042 51.197 294.602 52.2727C295.163 53.3333 295.958 54.1591 296.989 54.75C298.019 55.3409 299.246 55.6364 300.67 55.6364C301.655 55.6364 302.549 55.5 303.352 55.2273C304.155 54.9545 304.845 54.553 305.42 54.0227C305.996 53.4924 306.428 52.8409 306.716 52.0682L316.92 52.3636C316.496 54.6515 315.564 56.6439 314.125 58.3409C312.701 60.0227 310.83 61.3333 308.511 62.2727C306.193 63.197 303.511 63.6591 300.466 63.6591Z" fill="black"/>
<path d="M15.8043 48.8578C18.2069 50.7707 21.75 50.0857 23.2665 47.4151L45.661 7.97752C46.1968 7.03396 47.0957 6.35107 48.1484 6.0879V6.0879C51.4337 5.26657 54.1712 8.67421 52.6611 11.7053L24.1648 68.9016C22.4655 72.3122 17.7283 72.6446 15.5693 69.5047L1.67861 49.3019C0.653793 47.8114 0.580872 45.8634 1.49139 44.3004V44.3004C2.92616 41.8376 6.21212 41.2211 8.44202 42.9964L15.8043 48.8578Z" fill="#515151"/>
<path d="M35.8043 44.8578C38.2069 46.7707 41.75 46.0857 43.2665 43.4151L65.661 3.97752C66.1968 3.03396 67.0957 2.35107 68.1484 2.0879V2.0879C71.4337 1.26657 74.1712 4.67421 72.6611 7.70528L44.1648 64.9016C42.4655 68.3122 37.7283 68.6446 35.5693 65.5047L21.6786 45.3019C20.6538 43.8114 20.5809 41.8634 21.4914 40.3004V40.3004C22.9262 37.8376 26.2121 37.2211 28.442 38.9964L35.8043 44.8578Z" fill="black"/>
</svg>
